<svg width="679" height="266" xmlns="http://www.w3.org/2000/svg"><title>3 logo/1 core logo/1 pandapé/1 original@3x</title><g fill="none" fill-rule="evenodd"><path d="M-.053 0h679v266h-679z"/><path d="M250.455 101.743c11.598 0 18.443 9.111 18.443 19.454 0 10.44-6.939 19.076-18.443 19.076h-19.516v27.9h-5.108v-66.43h24.624zm43.542 0l27.57 66.43h-5.487l-6.37-15.468h-34.943l-6.371 15.468h-5.393l27.572-66.43h3.422zm-1.71 6.271l-16.665 41.145h33.137l-16.473-41.145zm-41.832-1.362h-19.516v28.712h19.516c9.983 0 13.24-6.1 13.24-14.167s-3.163-14.545-13.24-14.545zm81.07 5.702v55.819h-5.11v-66.43h3.744l41.919 58.45v-58.45h5.107v66.43h-5.107l-40.554-55.82zm82.14-10.612c18.16 0 29.69 14.9 29.69 33.215 0 18.412-11.53 33.217-29.69 33.217h-22.601v-66.432h22.602zm60.273-.276l27.57 66.43h-5.487l-6.37-15.468h-34.943l-6.372 15.468h-5.392l27.572-66.43h3.422zm-63.003 5.186h-14.763v56.612h14.763c16.732 0 27.217-11.129 27.217-28.307 0-17.08-10.485-28.305-27.217-28.305zm61.292 1.085l-16.665 41.145H488.7l-16.473-41.145z" fill="#6C6C6C"/><path d="M535.29 135.433c7.606 0 12.169-5.314 12.169-12.908 0-7.686-4.66-13-12.17-13h-15.115v25.908h15.116zm-24.624 32.74v-66.43h26.62c12.74 0 20.06 9.68 20.06 20.878s-7.414 20.403-20.06 20.403h-17.112v25.15h-9.508zm91.458-85.79l-9.317 13.192h-7.89l7.415-13.191h9.792zm10.173 85.79H569.99v-66.43h42.307v7.782h-32.8v22.206h28.617v7.782h-28.616v20.878h32.799v7.781z" fill="#238EDE"/><g transform="translate(66.673 66.79)"><circle fill="#0D3878" cx="66.316" cy="66.316" r="66.316"/><path d="M77.65 100.537c-2.749-.957-5.795-3.279-9.121-3.818 2.937-2.904 5.882-5.605 9.122-12.083.404-.81-.06-1.787-.895-2.127-.834-.34-1.771.065-2.126.894-2.378 5.552-7.096 9.843-9.286 11.843-2.275 2.076-4.173 3.188-4.392 3.306-1.444.777-2.867 1.526-4.187 1.985-6.177 2.148-11.972.556-14.511-2.647-1.613-2.038-3.027-4.873-2.871-11.056.887-8.912 5.47-10.946 9.258-15.662 4.524-5.634 9.654-10.92 17.487-10.92 7.79 0 12.183 4.08 16.346 9.77 4.077 4.73 9.334 9.403 10.4 16.812.645 5.533-.18 9.018-1.79 11.055-2.54 3.202-7.256 4.796-13.433 2.648zM57.887 43.742c0 4.855 3.945 8.8 8.8 8.8 4.853 0 8.798-3.945 8.798-8.8 0-4.609-3.51-14.804-8.799-14.804-5.288 0-8.799 10.207-8.799 14.804zM92.147 66.1c2.088-3.617 9.487-10.053 13.648-7.65 4.16 2.402 2.291 12.018.198 15.644-2.205 3.82-7.101 5.131-10.92 2.926-3.82-2.205-5.131-7.1-2.926-10.92zM77.91 49.028c1.647-4.292 8.583-12.563 13.52-10.668 4.937 1.895 4.561 12.672 2.91 16.974-1.74 4.532-6.837 6.801-11.369 5.062-4.532-1.74-6.8-6.836-5.061-11.368zm-51.324 8.435c4.118-2.474 11.623 3.823 13.78 7.412 2.27 3.78 1.044 8.698-2.736 10.97-3.78 2.271-8.698 1.045-10.97-2.735-2.15-3.58-4.193-13.172-.074-15.647zM42.72 38.092c5.057-1.547 11.396 7.177 12.743 11.585 1.42 4.642-1.2 9.568-5.842 10.987-4.642 1.42-9.568-1.2-10.987-5.842-1.344-4.396-.971-15.184 4.086-16.73z" fill="#FFF"/></g></g></svg>