<svg version="1.1" id="Layer_1" xmlns="http://www.w3.org/2000/svg" xmlns:xlink="http://www.w3.org/1999/xlink" x="0px" y="0px" viewBox="0 0 500 500" style="width: 188px;" xml:space="preserve" data-imageid="money-1-17" imageName="Money 1" class="illustrations_image">
<style type="text/css">
	.st0_money-1-17{fill:#68E1FD;}
	.st1_money-1-17{fill:#093F68;}
	.st2_money-1-17{fill:#FFBC0E;}
</style>
<g id="coins_money-1-17">
	<path class="st0_money-1-17 targetColor" d="M89.6,313.8v39.4c0,15.4,32.5,27.9,72.5,27.9s72.5-12.5,72.5-27.9v-39.4H89.6z" style="fill: rgb(66, 110, 175);"/>
	<path class="st1_money-1-17" d="M162.1,382.9c-41.7,0-74.3-13.1-74.3-29.8v-39.4c0-1,0.8-1.8,1.8-1.8h145c1,0,1.8,0.8,1.8,1.8v39.4&#10;&#9;&#9;C236.5,369.8,203.8,382.9,162.1,382.9z M91.5,315.6v37.5c0,14.1,32.4,26.1,70.7,26.1s70.7-12,70.7-26.1v-37.5H91.5z"/>
	<ellipse class="st0_money-1-17 targetColor" cx="162.1" cy="313.8" rx="72.5" ry="27.9" style="fill: rgb(66, 110, 175);"/>
	<path class="st1_money-1-17" d="M162.1,343.5c-41.7,0-74.3-13.1-74.3-29.8s32.7-29.8,74.3-29.8s74.3,13.1,74.3,29.8S203.8,343.5,162.1,343.5z&#10;&#9;&#9; M162.1,287.7c-38.3,0-70.7,12-70.7,26.1s32.4,26.1,70.7,26.1s70.7-12,70.7-26.1S200.5,287.7,162.1,287.7L162.1,287.7z"/>
	<path class="st0_money-1-17 targetColor" d="M89.6,274.6V314c0,15.4,32.5,27.9,72.5,27.9s72.5-12.5,72.5-27.9v-39.4H89.6z" style="fill: rgb(66, 110, 175);"/>
	<path class="st1_money-1-17" d="M162.1,343.7c-41.7,0-74.3-13.1-74.3-29.8v-39.4c0-1,0.8-1.8,1.8-1.8h145c1,0,1.8,0.8,1.8,1.8V314&#10;&#9;&#9;C236.5,330.7,203.8,343.7,162.1,343.7z M91.5,276.4V314c0,14.1,32.4,26.1,70.7,26.1s70.7-12,70.7-26.1v-37.6H91.5z"/>
	<ellipse class="st1_money-1-17" cx="162.1" cy="274.6" rx="72.5" ry="27.9"/>
	<path class="st1_money-1-17" d="M162.1,304.4c-41.7,0-74.3-13.1-74.3-29.8s32.7-29.8,74.3-29.8s74.3,13.1,74.3,29.8S203.8,304.4,162.1,304.4z&#10;&#9;&#9; M162.1,248.5c-38.3,0-70.7,12-70.7,26.1s32.4,26.1,70.7,26.1s70.7-12,70.7-26.1S200.5,248.5,162.1,248.5L162.1,248.5z"/>
	<path class="st0_money-1-17 targetColor" d="M75.5,228.1v39.4c0,15.4,32.5,27.9,72.5,27.9s72.5-12.5,72.5-27.9v-39.4H75.5z" style="fill: rgb(66, 110, 175);"/>
	<path class="st1_money-1-17" d="M148,297.3c-41.7,0-74.3-13.1-74.3-29.8v-39.4c0-1,0.8-1.8,1.8-1.8l0,0h145c1,0,1.8,0.8,1.8,1.8l0,0v39.4&#10;&#9;&#9;C222.3,284.2,189.7,297.3,148,297.3z M77.3,230v37.5c0,14.1,32.4,26.1,70.7,26.1s70.7-12,70.7-26.1V230H77.3z"/>
	<ellipse class="st0_money-1-17 targetColor" cx="148" cy="228.1" rx="72.5" ry="27.9" style="fill: rgb(66, 110, 175);"/>
	<path class="st1_money-1-17" d="M148,257.9c-41.7,0-74.3-13.1-74.3-29.8s32.6-29.8,74.3-29.8s74.3,13.1,74.3,29.8S189.7,257.9,148,257.9z&#10;&#9;&#9; M148,202c-38.3,0-70.7,11.9-70.7,26.1s32.4,26.1,70.7,26.1s70.7-11.9,70.7-26.1S186.3,202,148,202z"/>
	<path class="st0_money-1-17 targetColor" d="M75.5,189v39.4c0,15.4,32.5,27.9,72.5,27.9s72.5-12.5,72.5-27.9V189H75.5z" style="fill: rgb(66, 110, 175);"/>
	<path class="st1_money-1-17" d="M148,258.1c-41.7,0-74.3-13.1-74.3-29.8V189c0-1,0.8-1.8,1.8-1.8l0,0h145c1,0,1.8,0.8,1.8,1.8l0,0v39.4&#10;&#9;&#9;C222.3,245,189.7,258.1,148,258.1z M77.3,190.8v37.6c0,14.1,32.4,26.1,70.7,26.1s70.7-11.9,70.7-26.1v-37.6H77.3z"/>
	<ellipse class="st0_money-1-17 targetColor" cx="148" cy="189" rx="72.5" ry="27.9" style="fill: rgb(66, 110, 175);"/>
	<path class="st1_money-1-17" d="M148,218.7c-41.7,0-74.3-13.1-74.3-29.8s32.6-29.8,74.3-29.8s74.3,13.1,74.3,29.8S189.7,218.7,148,218.7z&#10;&#9;&#9; M148,162.9c-38.3,0-70.7,11.9-70.7,26.1s32.4,26.1,70.7,26.1s70.7-11.9,70.7-26.1S186.3,162.9,148,162.9z"/>
	<path class="st0_money-1-17 targetColor" d="M249.6,302.5v39.4c0,15.4,32.5,27.9,72.5,27.9s72.5-12.5,72.5-27.9v-39.4H249.6z" style="fill: rgb(66, 110, 175);"/>
	<path class="st1_money-1-17" d="M322.1,371.7c-41.7,0-74.4-13.1-74.4-29.8v-39.4c0-1,0.8-1.8,1.8-1.8h145c1,0,1.8,0.8,1.8,1.8v39.4&#10;&#9;&#9;C396.5,358.6,363.8,371.7,322.1,371.7z M251.4,304.4v37.5c0,14.1,32.4,26.1,70.7,26.1s70.7-12,70.7-26.1v-37.5H251.4z"/>
	<ellipse class="st0_money-1-17 targetColor" cx="322.1" cy="302.5" rx="72.5" ry="27.9" style="fill: rgb(66, 110, 175);"/>
	<path class="st1_money-1-17" d="M322.1,332.3c-41.7,0-74.4-13.1-74.4-29.8s32.7-29.8,74.4-29.8s74.3,13.1,74.3,29.8S363.8,332.3,322.1,332.3z&#10;&#9;&#9; M322.1,276.4c-38.3,0-70.7,12-70.7,26.1s32.4,26.1,70.7,26.1s70.7-12,70.7-26.1S360.4,276.4,322.1,276.4z"/>
	<path class="st0_money-1-17 targetColor" d="M249.6,263.4v39.4c0,15.4,32.5,27.9,72.5,27.9s72.5-12.5,72.5-27.9v-39.4H249.6z" style="fill: rgb(66, 110, 175);"/>
	<path class="st1_money-1-17" d="M322.1,332.5c-41.7,0-74.4-13.1-74.4-29.8v-39.4c0-1,0.8-1.8,1.8-1.8h145c1,0,1.8,0.8,1.8,1.8v39.4&#10;&#9;&#9;C396.5,319.4,363.8,332.5,322.1,332.5z M251.4,265.2v37.5c0,14.1,32.4,26.1,70.7,26.1s70.7-12,70.7-26.1v-37.5H251.4z"/>
	<ellipse class="st0_money-1-17 targetColor" cx="322.1" cy="263.4" rx="72.5" ry="27.9" style="fill: rgb(66, 110, 175);"/>
	<path class="st1_money-1-17" d="M322.1,293.1c-41.7,0-74.4-13.1-74.4-29.8s32.7-29.8,74.4-29.8s74.3,13.1,74.3,29.8S363.8,293.1,322.1,293.1z&#10;&#9;&#9; M322.1,237.3c-38.3,0-70.7,11.9-70.7,26.1s32.4,26.1,70.7,26.1s70.7-12,70.7-26.1S360.4,237.3,322.1,237.3z"/>
	<path class="st0_money-1-17 targetColor" d="M249.6,224.2v39.4c0,15.4,32.5,27.9,72.5,27.9s72.5-12.5,72.5-27.9v-39.4H249.6z" style="fill: rgb(66, 110, 175);"/>
	<path class="st1_money-1-17" d="M322.1,293.3c-41.7,0-74.4-13.1-74.4-29.8v-39.4c0-1,0.8-1.8,1.8-1.8l0,0h145c1,0,1.8,0.8,1.8,1.8v39.4&#10;&#9;&#9;C396.5,280.3,363.8,293.3,322.1,293.3z M251.4,226v37.5c0,14.1,32.4,26.1,70.7,26.1s70.7-12,70.7-26.1V226H251.4z"/>
	<ellipse class="st1_money-1-17" cx="322.1" cy="224.2" rx="72.5" ry="27.9"/>
	<path class="st1_money-1-17" d="M322.1,254c-41.7,0-74.4-13.1-74.4-29.8s32.7-29.8,74.4-29.8s74.3,13.1,74.3,29.8S363.8,254,322.1,254z&#10;&#9;&#9; M322.1,198.2c-38.3,0-70.7,11.9-70.7,26.1s32.4,26.1,70.7,26.1s70.7-12,70.7-26.1S360.4,198.1,322.1,198.2L322.1,198.2z"/>
	<path class="st0_money-1-17 targetColor" d="M230.5,179.4v39.4c0,15.4,32.5,27.9,72.5,27.9s72.5-12.5,72.5-27.9v-39.4H230.5z" style="fill: rgb(66, 110, 175);"/>
	<path class="st1_money-1-17" d="M303,248.6c-41.7,0-74.3-13.1-74.3-29.8v-39.4c0-1,0.8-1.8,1.8-1.8l0,0h145c1,0,1.8,0.8,1.8,1.8v39.4&#10;&#9;&#9;C377.3,235.5,344.7,248.6,303,248.6z M232.3,181.3v37.6c0,14.1,32.4,26.1,70.7,26.1s70.7-12,70.7-26.1v-37.6H232.3z"/>
	<ellipse class="st1_money-1-17" cx="303" cy="179.4" rx="72.5" ry="27.9"/>
	<path class="st1_money-1-17" d="M303,209.2c-41.7,0-74.3-13.1-74.3-29.8s32.6-29.8,74.3-29.8s74.3,13.1,74.3,29.8S344.7,209.2,303,209.2z&#10;&#9;&#9; M303,153.3c-38.3,0-70.7,11.9-70.7,26.1s32.4,26.1,70.7,26.1s70.7-12,70.7-26.1S341.3,153.3,303,153.3z"/>
	<path class="st0_money-1-17 targetColor" d="M244.5,138.2v39.4c0,15.4,32.5,27.9,72.5,27.9s72.5-12.5,72.5-27.9v-39.4H244.5z" style="fill: rgb(66, 110, 175);"/>
	<path class="st1_money-1-17" d="M317,207.3c-41.7,0-74.3-13.1-74.3-29.8v-39.4c0-1,0.8-1.8,1.8-1.8l0,0h145c1,0,1.8,0.8,1.8,1.8v39.4&#10;&#9;&#9;C391.3,194.3,358.7,207.3,317,207.3z M246.3,140v37.6c0,14.1,32.4,26.1,70.7,26.1s70.7-11.9,70.7-26.1V140H246.3z"/>
	<ellipse class="st0_money-1-17 targetColor" cx="317" cy="138.2" rx="72.5" ry="27.9" style="fill: rgb(66, 110, 175);"/>
	<path class="st1_money-1-17" d="M317,168c-41.7,0-74.3-13.1-74.3-29.8s32.6-29.8,74.3-29.8s74.3,13.1,74.3,29.8S358.7,168,317,168z M317,112.2&#10;&#9;&#9;c-38.3,0-70.7,12-70.7,26.1s32.4,26.1,70.7,26.1s70.7-11.9,70.7-26.1S355.3,112.1,317,112.2L317,112.2z"/>
	<circle class="st0_money-1-17 targetColor" cx="256.9" cy="336.2" r="74.9" style="fill: rgb(66, 110, 175);"/>
	<path class="st1_money-1-17" d="M256.9,412.9c-42.4,0-76.7-34.4-76.7-76.7s34.4-76.7,76.7-76.7c42.4,0,76.7,34.3,76.7,76.7&#10;&#9;&#9;C333.6,378.5,299.2,412.9,256.9,412.9z M256.9,263.1c-40.3,0-73,32.8-73,73.1s32.8,73,73.1,73c40.3,0,73-32.7,73-73&#10;&#9;&#9;C330,295.8,297.2,263.1,256.9,263.1z"/>
	<path class="st1_money-1-17" d="M256.9,399.6c-35,0-63.4-28.4-63.4-63.4s28.4-63.4,63.4-63.4c35,0,63.4,28.4,63.4,63.4&#10;&#9;&#9;C320.3,371.2,291.9,399.5,256.9,399.6z M256.9,276.4c-33,0-59.7,26.8-59.7,59.8c0,33,26.8,59.7,59.8,59.7c33,0,59.7-26.8,59.7-59.7&#10;&#9;&#9;C316.6,303.2,289.9,276.5,256.9,276.4z"/>
	<path class="st1_money-1-17" d="M250,383.5V376c-2.7-0.7-5.4-1.3-7.9-2.2c-5-1.6-9.3-4.8-12.2-9.1c-2.4-3.8-3.6-8.2-3.5-12.7H241&#10;&#9;&#9;c0.7,5.4,3.3,9.3,9,10.8V343c-2.9-0.9-5.9-1.6-8.8-2.6c-3.2-0.9-6.1-2.6-8.5-4.8c-2.5-2.5-4.2-5.7-4.7-9.2&#10;&#9;&#9;c-0.9-4.3-0.6-8.7,0.9-12.7c2.2-5.9,6.9-10.6,12.8-12.7c2.4-0.8,4.9-1.4,7.4-1.9c0.3-0.1,0.5-0.1,0.9-0.2v-9.9h13.7v1&#10;&#9;&#9;c0,2.8,0,5.7,0,8.5c0,0.7,0.2,0.9,0.9,1.1c4.7,0.9,9.1,3,12.8,6c3.9,3.2,6.5,7.7,7.3,12.7c0.2,1.4,0.4,2.7,0.5,4.2h-14.9&#10;&#9;&#9;c-0.1-4.1-2.6-7.9-6.5-9.4v18.5c0.5,0.1,1,0.3,1.6,0.4c4,0.8,7.9,2,11.7,3.7c5.7,2.5,9.6,7.9,10.1,14.1c0.9,5.7-0.5,11.5-3.9,16.1&#10;&#9;&#9;c-2.7,3.8-6.6,6.7-11,8.2c-2.8,1-5.6,1.6-8.6,2.4v7.3L250,383.5z M263.7,345.8v17.2c2.2-0.3,4.3-1.3,6-2.7&#10;&#9;&#9;c3.2-2.6,4.3-9.1-0.4-11.9C267.6,347.5,265.7,346.6,263.7,345.8L263.7,345.8z M250,328.2v-16.7c-1.8,0.8-3.5,1.7-5.2,2.7&#10;&#9;&#9;c-3.8,2.5-4.4,9.6,0.4,12C246.7,326.9,248.3,327.5,250,328.2z"/>
</g>
<g id="sparkling_money-1-17">
	<path class="st2_money-1-17" d="M92.8,125c0,0,0.7,12.5-14.9,16.7c0,0,11.8-0.2,15.4,16.8c0,0,1.3-16.5,15.4-18.1&#10;&#9;&#9;C108.7,140.4,95.5,141.5,92.8,125z"/>
	<path class="st1_money-1-17" d="M93.3,160.4c-0.9,0-1.6-0.6-1.8-1.4c-3.2-15.3-13.3-15.4-13.5-15.4c-0.9,0-1.7-0.7-1.8-1.6&#10;&#9;&#9;c-0.1-0.9,0.5-1.8,1.3-2c13.9-3.7,13.5-14.4,13.5-14.9c-0.1-1,0.6-1.9,1.6-2s1.9,0.6,2,1.6l0,0c2.4,14.6,13.4,13.9,13.9,13.9&#10;&#9;&#9;c1-0.1,1.9,0.7,1.9,1.7c0.1,1-0.6,1.8-1.6,1.9c-12.3,1.4-13.7,15.9-13.8,16.5c-0.1,0.9-0.8,1.6-1.7,1.7L93.3,160.4z M83.8,141.4&#10;&#9;&#9;c3.1,1.5,6.8,4.5,9.3,10.3c1.4-3.8,3.9-8.2,8.5-10.9c-3.9-1.7-6.9-4.8-8.6-8.7C91.1,136.2,87.9,139.5,83.8,141.4z"/>
	<path class="st2_money-1-17" d="M406.3,232.8c0,0,0.8,14.4-17.1,19.2c0,0,13.6-0.2,17.7,19.4c0,0,1.5-19,17.7-20.9&#10;&#9;&#9;C424.5,250.6,409.4,251.9,406.3,232.8z"/>
	<path class="st1_money-1-17" d="M406.8,273.3c-0.9,0-1.6-0.6-1.8-1.5c-3.8-17.9-15.7-18-15.9-17.9c-0.9,0-1.7-0.7-1.8-1.6&#10;&#9;&#9;c-0.1-0.9,0.5-1.8,1.3-2c16.2-4.4,15.8-16.8,15.8-17.4c0-1,0.8-1.9,1.8-1.9c0.9,0,1.7,0.6,1.9,1.5c2.8,17.2,15.7,16.2,16.3,16.2&#10;&#9;&#9;c1-0.1,1.9,0.7,2,1.7c0.1,1-0.6,1.8-1.6,2c-14.4,1.7-16,18.5-16.1,19.2c-0.1,0.9-0.8,1.6-1.7,1.7L406.8,273.3z M395.3,251.8&#10;&#9;&#9;c3.7,1.7,8.3,5.2,11.3,12.5c0.4-1.2,0.9-2.3,1.4-3.4c1.9-4.2,5-7.6,9-9.9c-4.8-2-8.6-5.8-10.5-10.6&#10;&#9;&#9;C404.3,245.5,400.3,249.5,395.3,251.8L395.3,251.8z"/>
	<path class="st2_money-1-17" d="M331.2,133.2c0,0,0.8,14.4-17.1,19.2c0,0,13.6-0.2,17.7,19.4c0,0,1.5-19,17.7-20.9&#10;&#9;&#9;C349.5,151,334.3,152.3,331.2,133.2z"/>
	<path class="st1_money-1-17" d="M331.8,173.7c-0.9,0-1.6-0.6-1.8-1.4c-3.7-17.7-15.5-17.9-15.9-17.9l0,0c-1,0-1.8-0.8-1.8-1.8&#10;&#9;&#9;c0-0.8,0.6-1.6,1.4-1.8c16.2-4.3,15.8-16.8,15.8-17.4c-0.1-1,0.6-1.9,1.6-2c1-0.1,1.9,0.6,2,1.6c2.8,17.2,15.7,16.2,16.2,16.2&#10;&#9;&#9;c1-0.1,1.9,0.6,2,1.7c0.1,1-0.6,1.9-1.6,2c-14.4,1.7-16,18.5-16.1,19.2c-0.1,0.9-0.8,1.6-1.7,1.7L331.8,173.7z M320.2,152.2&#10;&#9;&#9;c3.7,1.7,8.3,5.2,11.3,12.5c0.4-1.2,0.9-2.3,1.4-3.4c1.9-4.2,5-7.6,9-9.9c-4.8-2-8.6-5.8-10.5-10.6&#10;&#9;&#9;C329.3,145.9,325.3,150,320.2,152.2z"/>
	<path class="st2_money-1-17" d="M206.5,88.9c0,0,0.8,14.4-17.1,19.2c0,0,13.6-0.2,17.7,19.4c0,0,1.5-19,17.7-20.9&#10;&#9;&#9;C224.7,106.7,209.6,108,206.5,88.9z"/>
	<path class="st1_money-1-17" d="M207,129.4c-0.9,0-1.6-0.6-1.8-1.4c-3.7-17.7-15.2-17.9-15.8-17.9l0,0c-1,0-1.8-0.8-1.9-1.8&#10;&#9;&#9;c0-0.8,0.6-1.6,1.4-1.8c16.2-4.3,15.8-16.8,15.8-17.4c-0.1-1,0.6-1.9,1.6-2s1.9,0.6,2,1.6c2.8,17.2,15.7,16.2,16.2,16.2&#10;&#9;&#9;c1-0.1,1.9,0.6,2,1.7c0.1,1-0.6,1.9-1.6,2c-14.4,1.7-16,18.5-16.1,19.2c-0.1,0.9-0.8,1.6-1.7,1.7H207z M195.4,107.9&#10;&#9;&#9;c3.7,1.7,8.3,5.2,11.3,12.5c0.4-1.2,0.9-2.3,1.4-3.4c1.9-4.2,5-7.6,9-9.9c-4.8-2-8.6-5.8-10.5-10.6&#10;&#9;&#9;C204.5,101.6,200.5,105.6,195.4,107.9L195.4,107.9z"/>
</g>
</svg>